<?xml version="1.0" standalone="no"?><!DOCTYPE svg PUBLIC "-//W3C//DTD SVG 1.1//EN" "http://www.w3.org/Graphics/SVG/1.1/DTD/svg11.dtd"><svg t="1787891918578" class="icon" viewBox="0 0 1024 1024" version="1.1" xmlns="http://www.w3.org/2000/svg" p-id="32250" xmlns:xlink="http://www.w3.org/1999/xlink" width="200" height="200"><path d="M213.333 682.667l0 170.667-42.667 0 0-170.667 42.667 0zM298.667 597.333l-213.333 0c0 0 0 19.072 0 42.667l0 256c0 23.595 0 42.667 0 42.667l213.333 0c0 0 0-19.072 0-42.667l0-256c0-23.595 0-42.667 0-42.667l0 0z" p-id="32251"></path><path d="M512 213.333l0 640-42.667 0 0-640 42.667 0zM597.333 128l-213.333 0c0 0 0 19.072 0 42.667l0 725.333c0 23.595 0 42.667 0 42.667l213.333 0c0 0 0-19.072 0-42.667l0-725.333c0-23.595 0-42.667 0-42.667l0 0z" p-id="32252"></path><path d="M810.667 512l0 341.333-42.667 0 0-341.333 42.667 0zM896 426.667c0 0-19.115 0-42.667 0l-128 0c-23.552 0-42.667 0-42.667 0l0 469.333c0 23.595 0 42.667 0 42.667l213.333 0c0 0 0-19.072 0-42.667l0-469.333z" p-id="32253"></path></svg>